<?xml version="1.0" encoding="UTF-8" standalone="no"?>
<!-- the password is: slartibartfast -->
<svg xmlns:dc="http://purl.org/dc/elements/1.1/" xmlns:cc="http://creativecommons.org/ns#" xmlns:rdf="http://www.w3.org/1999/02/22-rdf-syntax-ns#" xmlns:svg="http://www.w3.org/2000/svg" xmlns="http://www.w3.org/2000/svg" xmlns:sodipodi="http://sodipodi.sourceforge.net/DTD/sodipodi-0.dtd" xmlns:inkscape="http://www.inkscape.org/namespaces/inkscape" id="Vrstva_1" data-name="Vrstva 1" viewBox="0 0 696.70001 134.13" version="1.1" sodipodi:docname="4max-solo-nomopron.svg" inkscape:version="1.0.2-2 (e86c870879, 2021-01-15)" width="696.70001" height="134.13">
  <metadata id="metadata3915"></metadata>
  <defs id="defs3913"></defs>
  <title id="title3858">4MAX</title>
  <path d="M 143.69,0 H 105.37 L 15.15,61.51 15,61.77 4.79,68.79 Q 0.01,71.3 0,80.87 v 24.52 H 102.64 L 93.059999,76.65 h -45.17 L 110.16,33.53 v 100.6 h 33.53 v -28.74 h 19.16 V 76.65 h -19.16 z" style="fill:#005cb9;fill-opacity:1" id="path3862" inkscape:connector-curvature="0"></path>
  <path d="m 318.63,4.79 -48,95.81 L 222.79,4.79 Q 220.3,0.01 210.72,0 h -33.5 v 134.13 h 33.57 V 57.49 l 38.32,76.64 h 43.08 l 38.32,-76.64 v 76.64 h 33.54 V 0 h -33.54 q -9.57,0 -11.88,4.79 z" style="fill:#005cb9;fill-opacity:1" id="path3864" inkscape:connector-curvature="0"></path>
  <path d="M 488.92,9.58 Q 484.14,0.01 474.55,0 h -33.53 l -67.07,134.13 h 38.33 l 50.3,-100.6 26.34,52.7 h -45.13 l 9.58,28.74 h 50 l 12.42,19.16 20.28,-25.76 z" style="fill:#005cb9" id="path3866" inkscape:connector-curvature="0"></path>
  <path d="M 696.7,0 H 653.58 L 615.26,42.92 603,29.19 603.35,29.26 582.23,5.42 C 577.99,1.19 575.9,0 568.8,0 h -35.01 l 59.87,67.07 -59.87,67.06 h 43.11 l 38.32,-42.92 17.67,19.79 15.69,17.71 c 4.24,4.24 6.32,5.42 13.43,5.42 h 34.65 L 636.79,67.07 Z" style="fill:#005cb9" id="path3868" inkscape:connector-curvature="0"></path>
</svg>
