<?xml version="1.0" encoding="UTF-8"?> <svg xmlns="http://www.w3.org/2000/svg" viewBox="0 0 354 69" width="354" height="69"><defs><clipPath id="cp1"><path d="M-94 -313L530 -313L530 119L-94 119Z"></path></clipPath></defs><style> tspan { white-space:pre } .shp0 { fill: #2c2e35 } .shp1 { fill: #d62413 } </style><g id="Page 1" clip-path="url(#cp1)"><path id="Path 1" fill-rule="evenodd" class="shp0" d="M29.86 62.17C24.88 66.32 19.93 68.41 14.98 68.41C10.84 68.41 7.43 67.23 4.75 64.87C2.06 62.51 0.73 59.54 0.73 55.93C0.73 51.25 2.81 47.48 6.98 44.62C11.14 41.77 16.65 40.34 23.48 40.34L28.57 40.34L28.57 36.5C28.57 33.33 27.86 31.07 26.44 29.72C25.02 28.37 22.67 27.7 19.39 27.7C14.63 27.7 9.7 29.03 4.61 31.69L4.61 24.63C10.44 22.54 15.91 21.49 21.02 21.49C26.78 21.49 30.84 22.62 33.22 24.89C35.59 27.16 36.77 31.07 36.77 36.63L36.77 55.51C36.77 58.22 37.07 60.07 37.66 61.06C38.24 62.03 39.35 62.53 40.97 62.53C41.5 62.53 42.36 62.39 43.57 62.11L44.32 67.06C41.57 67.96 39.49 68.41 38.07 68.41C34.01 68.41 31.27 66.32 29.86 62.17ZM28.57 56.86L28.57 45.44L26.11 45.44C14.88 45.44 9.27 48.49 9.27 54.57C9.27 56.77 9.99 58.53 11.43 59.86C12.87 61.19 14.78 61.86 17.17 61.86C20.75 61.86 24.55 60.2 28.57 56.86ZM92.32 66.11C87.46 67.79 82.61 68.63 77.78 68.63C69.89 68.63 63.82 66.58 59.56 62.48C55.3 58.39 53.17 52.57 53.17 45.04C53.17 37.64 55.27 31.87 59.47 27.71C63.67 23.56 69.52 21.49 77 21.49C81.77 21.49 86.58 22.21 91.43 23.67L91.43 30.56C86.09 28.66 81.53 27.7 77.76 27.7C72.83 27.7 68.96 29.24 66.14 32.33C63.34 35.42 61.93 39.65 61.93 45.04C61.93 50.47 63.43 54.73 66.44 57.8C69.46 60.88 73.61 62.42 78.92 62.42C82.88 62.42 87.35 61.49 92.32 59.63L92.32 66.11ZM132.52 62.17C127.54 66.32 122.59 68.41 117.64 68.41C113.5 68.41 110.09 67.23 107.41 64.87C104.72 62.51 103.39 59.54 103.39 55.93C103.39 51.25 105.47 47.48 109.64 44.62C113.81 41.77 119.31 40.34 126.14 40.34L131.23 40.34L131.23 36.5C131.23 33.33 130.52 31.07 129.1 29.72C127.68 28.37 125.33 27.7 122.05 27.7C117.29 27.7 112.36 29.03 107.27 31.69L107.27 24.63C113.11 22.54 118.58 21.49 123.68 21.49C129.44 21.49 133.5 22.62 135.88 24.89C138.25 27.16 139.44 31.07 139.44 36.63L139.44 55.51C139.44 58.22 139.73 60.07 140.32 61.06C140.9 62.03 142.01 62.53 143.63 62.53C144.16 62.53 145.03 62.39 146.23 62.11L146.98 67.06C144.23 67.96 142.15 68.41 140.73 68.41C136.67 68.41 133.93 66.32 132.52 62.17ZM131.23 56.86L131.23 45.44L128.77 45.44C117.55 45.44 111.93 48.49 111.93 54.57C111.93 56.77 112.65 58.53 114.09 59.86C115.54 61.19 117.44 61.86 119.83 61.86C123.41 61.86 127.21 60.2 131.23 56.86ZM156.61 67.63L156.61 22.48L164.81 22.48L164.81 30.97C168.59 24.65 173.72 21.49 180.23 21.49C188.81 21.49 193.1 26.57 193.1 36.74L193.1 67.63L184.89 67.63L184.89 38.98C184.89 35.46 184.34 32.96 183.24 31.48C182.15 29.99 180.31 29.25 177.73 29.25C173.61 29.25 169.31 32.21 164.81 38.12L164.81 67.63L156.61 67.63Z"></path><path id="Path 2" class="shp1" d="M246.2 67.54C242.09 68.26 238.13 68.63 234.3 68.63C227.62 68.63 223.06 67.43 220.65 65.04C218.24 62.65 217.03 58.11 217.03 51.44L217.03 29.69L205.72 29.69L205.72 23.48L217.03 23.48L217.03 13.72L225.24 13.72L225.24 23.48L245.32 23.48L245.32 29.69L225.24 29.69L225.24 52.72C225.24 55.29 225.4 57.06 225.72 58.03C226.04 58.99 226.72 59.84 227.78 60.55C229.67 61.79 232.42 62.42 236.03 62.42C239.45 62.42 242.84 62.03 246.2 61.25L246.2 67.54Z"></path><path id="Path 3" fill-rule="evenodd" class="shp0" d="M259.27 67.63L259.27 1.96L267.47 1.96L267.47 30.97C271.25 24.65 276.38 21.49 282.89 21.49C291.47 21.49 295.76 26.57 295.76 36.74L295.76 67.63L287.55 67.63L287.55 38.98C287.55 35.46 287 32.96 285.91 31.48C284.81 29.99 282.97 29.25 280.39 29.25C276.28 29.25 271.97 32.21 267.47 38.12L267.47 67.63L259.27 67.63ZM337.84 62.17C332.87 66.32 327.91 68.41 322.96 68.41C318.82 68.41 315.41 67.23 312.73 64.87C310.05 62.51 308.71 59.54 308.71 55.93C308.71 51.25 310.79 47.48 314.96 44.62C319.13 41.77 324.63 40.34 331.47 40.34L336.55 40.34L336.55 36.5C336.55 33.33 335.84 31.07 334.42 29.72C333 28.37 330.65 27.7 327.37 27.7C322.61 27.7 317.68 29.03 312.59 31.69L312.59 24.63C318.43 22.54 323.9 21.49 329.01 21.49C334.76 21.49 338.82 22.62 341.2 24.89C343.57 27.16 344.76 31.07 344.76 36.63L344.76 55.51C344.76 58.22 345.05 60.07 345.64 61.06C346.22 62.03 347.33 62.53 348.95 62.53C349.48 62.53 350.35 62.39 351.55 62.11L352.3 67.06C349.55 67.96 347.47 68.41 346.05 68.41C341.99 68.41 339.26 66.32 337.84 62.17ZM336.55 56.86L336.55 45.44L334.1 45.44C322.87 45.44 317.25 48.49 317.25 54.57C317.25 56.77 317.97 58.53 319.42 59.86C320.86 61.19 322.77 61.86 325.15 61.86C328.73 61.86 332.53 60.2 336.55 56.86Z"></path></g></svg> 