<svg width="162" height="56" viewBox="0 0 162 56" fill="none" xmlns="http://www.w3.org/2000/svg">
<g id="logo-thinner">
<path id="appio" fill-rule="evenodd" clip-rule="evenodd" d="M135.454 14.3415C136.581 14.3415 137.496 13.5771 137.496 12.6341C137.496 11.6912 136.581 10.9268 135.454 10.9268C134.326 10.9268 133.412 11.6912 133.412 12.6341C133.412 13.5771 134.326 14.3415 135.454 14.3415ZM150.769 16.7317C156.971 16.7317 162 21.7772 162 28C162 34.2228 156.971 39.2683 150.769 39.2683C144.566 39.2683 139.538 34.2228 139.538 28C139.538 21.7772 144.566 16.7317 150.769 16.7317ZM150.788 34.8292C147.895 34.8364 145.283 33.1771 144.171 30.6258C143.059 28.0745 143.666 25.1343 145.709 23.1775C147.751 21.2206 150.827 20.6331 153.5 21.6891C156.173 22.745 157.916 25.2363 157.916 28.0001C157.921 31.7667 154.729 34.8242 150.788 34.8292ZM133.495 39.1457V17.0472H137.579V39.2225L133.495 39.1457ZM74.4535 16.3902C76.8009 16.395 79.0858 17.1502 80.9764 18.5462L80.976 17.0472H85.0111V38.1343H80.976V36.668C79.0856 38.0642 76.8009 38.8196 74.4535 38.8244C68.313 38.7763 63.3604 33.7684 63.3604 27.6073C63.3604 21.4463 68.313 16.4383 74.4535 16.3902ZM68.1182 30.1682C69.1773 32.7195 71.6647 34.3788 74.4193 34.3716C78.1735 34.3665 81.2129 31.3091 81.2082 27.5424C81.2082 24.7786 79.5479 22.2873 77.0022 21.2314C74.4566 20.1754 71.5275 20.7629 69.5823 22.7198C67.637 24.6766 67.059 27.6168 68.1182 30.1682ZM91.261 30.1682C92.3201 32.7195 94.8075 34.3788 97.5621 34.3716C101.316 34.3665 104.356 31.3091 104.351 27.5424C104.351 24.7786 102.691 22.2873 100.145 21.2314C97.5994 20.1754 94.6704 20.7629 92.7251 22.7198C90.7798 24.6766 90.2019 27.6168 91.261 30.1682ZM114.378 30.1682C115.437 32.7195 117.925 34.3788 120.679 34.3716C124.433 34.3665 127.473 31.3091 127.468 27.5424C127.468 24.7786 125.808 22.2874 123.262 21.2314C120.716 20.1754 117.787 20.7629 115.842 22.7198C113.897 24.6766 113.319 27.6169 114.378 30.1682ZM91.1861 46.4353H87.1521L87.1518 17.0465H91.1868V18.5456C93.0777 17.1496 95.3628 16.3947 97.7104 16.3902C103.885 16.3902 108.89 21.4123 108.89 27.6073C108.89 33.8023 103.885 38.8244 97.7104 38.8244C95.3626 38.8202 93.0772 38.0654 91.1861 36.6694V46.4353ZM114.303 46.4353H110.269L110.269 17.0465H114.304V18.5456C116.195 17.1496 118.48 16.3947 120.827 16.3902C127.002 16.3902 132.007 21.4123 132.007 27.6073C132.007 33.8023 127.002 38.8244 120.827 38.8244C118.48 38.8202 116.194 38.0654 114.303 36.6694V46.4353Z" fill="#030D1D"/>
<path id="symbol" fill-rule="evenodd" clip-rule="evenodd" d="M0 56C0 56 8.83785 29.2801 31.3109 0C31.3109 0 51.4976 25.4732 62.6218 56C62.6218 56 35.3034 38.3685 0 56ZM14.4343 43.903C14.4343 43.903 20.5393 27.522 31.3109 13.7757V13.7763C31.3109 13.7763 41.0806 25.8126 48.1872 43.903C48.1872 43.903 32.626 35.11 14.4343 43.903ZM20.43 38.527C20.43 38.527 24.4021 27.9921 31.3109 19.1517V19.1523C31.3109 19.1523 37.3287 26.5249 42.0805 38.527C42.0805 38.527 32.0988 32.8723 20.43 38.527Z" fill="#0A55D7"/>
</g>
</svg>
