<svg width="129" height="70" viewBox="0 0 129 70" fill="none" xmlns="http://www.w3.org/2000/svg">
<path d="M24.3295 33L13.9198 36.4485L0 70L9.87526 66.7959L19.0413 43.6731C19.3983 44.3096 19.73 44.9099 20.0274 45.4697C20.3234 46.029 20.6083 46.5695 20.8936 47.0916C21.1791 47.612 21.471 48.133 21.7686 48.6631C22.0646 49.1942 22.3756 49.7718 22.7082 50.388L18.4154 51.7955L15.0343 60.3677L26.0616 56.7447L28.2261 60.8367L38 57.6734L24.3295 33Z" fill="white"/>
<path d="M129 0L101.951 9.00999V15.9964L111.619 12.8496L111.568 43.0912L119.577 40.4596C119.589 30.3902 119.563 20.3251 119.577 10.2553L129 7.19243V0ZM67.0871 10.5178C66.7397 10.5339 66.3733 10.587 65.9921 10.6864L49.3348 16.2024C47.1097 16.9112 45.5096 18.1572 44.535 19.939C43.5634 21.7224 43.0761 24.0512 43.0696 26.9262C43.0636 29.6457 43.5489 31.5067 44.5269 32.5171C45.5054 33.5301 46.9821 33.7741 48.9644 33.2479L58.1605 30.2508C58.8575 30.0204 59.5303 29.8139 60.1734 29.6045C60.8172 29.3948 61.3763 29.1946 61.866 29.1086C62.3557 29.0252 62.7515 29.0488 63.0447 29.1832C63.3394 29.3176 63.4841 29.6134 63.483 30.073C63.483 30.717 63.2421 31.247 62.7503 31.6647C62.2587 32.0843 61.7137 32.3882 61.125 32.5827C61.125 32.5827 61.0949 32.6021 61.0407 32.6392C61.0063 32.6565 60.9737 32.6626 60.9398 32.6674L44.2572 38.1269C42.034 38.8363 40.4402 40.0814 39.4655 41.8643C38.4926 43.6472 38.0066 45.9684 38.0001 48.8416C37.9921 51.5622 38.4762 53.4341 39.4567 54.4422C40.4333 55.4554 41.9092 55.6973 43.8949 55.1724L53.0912 52.1753C53.7882 51.945 54.4584 51.7298 55.1034 51.5199C55.7429 51.3116 56.3141 51.1169 56.8048 51.0331C57.2945 50.948 57.681 50.9731 57.9753 51.1077C58.2676 51.242 58.414 51.5359 58.413 51.9974C58.413 52.6395 58.1706 53.1706 57.6802 53.5899C57.1899 54.0083 56.6451 54.313 56.0557 54.508L38.5559 60.2765V62.8152C38.5993 63.6233 38.789 64.2929 39.137 64.8189C39.4401 65.2576 39.8939 65.5992 40.4927 65.8489C41.0916 66.101 41.9609 66.0369 43.0949 65.662L58.9523 60.436C61.5046 59.5942 63.3482 58.3136 64.4848 56.5773C65.6212 54.8428 66.1968 52.4732 66.2028 49.4688C66.2085 47.4164 65.8984 45.7327 65.2937 44.4205L65.2593 44.3929C64.8033 43.6429 64.1479 43.1537 63.2889 42.9127C62.4279 42.6705 61.4084 42.739 60.2325 43.1286L48.03 47.1933C47.3106 47.4305 46.7557 47.4723 46.3538 47.3238C45.9495 47.1742 45.7448 46.8009 45.7474 46.2098C45.7474 45.543 45.9742 45.0228 46.4211 44.6456C46.817 44.31 47.2638 44.0525 47.752 43.8681C47.8854 43.8305 48.0223 43.7926 48.1644 43.7468L64.0216 38.5115C66.5722 37.6697 68.4168 36.3866 69.5542 34.6528C70.6908 32.9183 71.2678 30.5476 71.2721 27.5443C71.278 25.492 70.9714 23.8104 70.363 22.496L70.3288 22.4678C69.8736 21.7198 69.2169 21.2315 68.3584 20.9883C67.4968 20.7472 66.479 20.8136 65.3019 21.2033L53.0993 25.2682C52.3792 25.5076 51.8179 25.549 51.415 25.3994C51.0126 25.2515 50.8148 24.8821 50.8167 24.2946C50.8167 23.6247 51.0418 23.0995 51.4904 22.7211C51.9369 22.3439 52.4482 22.0662 53.015 21.878L70.4131 16.1368V13.3647C70.3069 12.3485 70.0227 11.653 69.5542 11.2671C69.0871 10.8828 68.5941 10.6495 68.0723 10.5643C67.7673 10.5243 67.4342 10.5013 67.0871 10.5178ZM80.4519 16.165L72.4769 18.8159V55.9783L80.4519 53.3465V16.165ZM106.923 17.8674C106.844 17.8639 106.765 17.8641 106.684 17.8697C106.198 17.9031 105.672 18.057 105.1 18.207L88.4186 23.6665C86.1944 24.377 84.5916 25.4819 83.6181 27.2635C82.6444 29.0448 82.1587 31.3755 82.1526 34.2499C82.1467 36.9705 82.6329 38.8327 83.6099 39.8414C84.5885 40.8529 86.0717 41.3108 88.0563 40.7869L97.2435 37.7996C97.9417 37.5677 98.6137 37.3721 99.2565 37.1441C99.909 36.9316 100.489 36.7447 100.957 36.5916C101.404 36.4473 101.84 36.371 102.137 36.5069C102.43 36.6421 102.574 36.9354 102.574 37.3967C102.568 38.0391 102.325 38.5685 101.833 38.9891C101.344 39.4064 100.804 39.7592 100.216 39.9537L82.7173 45.723L82.7083 48.2144C82.7498 49.0225 82.9491 49.6921 83.2977 50.2181C83.6007 50.6557 84.0541 51.0072 84.6541 51.2582C85.2515 51.5095 86.1139 51.4915 87.2474 51.1178L103.113 45.8817C105.665 45.0416 107.509 43.7105 108.646 41.9765C109.781 40.2437 110.349 37.872 110.355 34.8679C110.361 32.8173 110.062 31.1323 109.454 29.8197L109.421 29.7922C108.965 29.0422 108.309 28.5524 107.45 28.312C106.587 28.0709 105.57 28.0344 104.393 28.4249L92.1907 32.4895C91.4698 32.7254 90.9087 32.8727 90.5062 32.7231C90.1029 32.5749 89.8998 32.2091 89.8998 31.6181C89.8998 30.9515 90.1331 30.4237 90.5824 30.0448C91.0288 29.6664 91.5307 29.4453 92.0981 29.2581L109.496 23.5169L109.505 20.6883C109.397 19.6725 109.113 18.9745 108.646 18.5908C108.178 18.204 107.678 17.9713 107.155 17.888C107.079 17.8779 107.001 17.8708 106.923 17.8674Z" fill="white"/>
<path d="M80 5L72 7.75744V15L80 12.2522V5Z" fill="white"/>
</svg>
