<svg xmlns="http://www.w3.org/2000/svg" fill="none" height="74" viewBox="0 0 413 74" width="413"><g clip-path="url(#clip0_1542_120218)"><path d="M225.689 11.916c.029-6.534 3.981-10.906 10.193-10.878 4.803.021 8.241 2.984 8.912 7.526l-3.572-.015c-.678-2.703-2.653-4.398-5.504-4.41-3.991-.018-6.468 3.193-6.488 7.795-.02 4.574 2.368 7.836 6.329 7.854 2.911.012 4.929-1.635 5.603-4.361l3.571.016c-.68 4.536-4.266 7.468-9.159 7.447-6.124-.027-9.916-4.37-9.887-10.97l.002-.004zm20.639-4.879l12.577.056-.01 2.363-8.63 10.395 8.974.04-.013 2.914-13.327-.059.01-2.36 8.631-10.398-8.225-.036.013-2.915zm13.89 7.948c.022-4.848 3.068-8.056 7.6-8.036 4.442.02 7.401 2.918 7.471 7.52a9.236 9.236 0 01-.095 1.258l-11.588-.051v.216c.078 2.67 1.722 4.424 4.273 4.435 1.981.01 3.426-.997 3.885-2.742l3.243.014c-.554 3.096-3.147 5.449-6.958 5.432-4.833-.021-7.85-3.225-7.829-8.046h-.002zm11.715-1.696c-.26-2.334-1.844-3.66-4.097-3.67-2.071-.01-3.849 1.394-4.099 3.634l8.196.036zm5.361 1.77c.022-4.847 3.098-8.054 7.75-8.034 3.963.018 6.414 2.266 7.029 5.831l-3.393-.015c-.412-1.844-1.698-2.985-3.708-2.994-2.611-.011-4.333 2.129-4.346 5.227-.014 3.071 1.689 5.194 4.3 5.206 1.98.008 3.308-1.152 3.704-2.958l3.423.015c-.616 3.556-3.238 5.785-7.17 5.768-4.653-.02-7.61-3.134-7.589-8.045zm31.519-.78l-.039 8.744-3.241-.014.037-8.47c.013-2.973-1.27-4.576-3.671-4.586-2.552-.012-4.121 1.917-4.135 5.077l-.035 7.946-3.243-.014.095-21.48 3.242.014-.035 8.038c.966-1.344 2.442-2.444 4.844-2.433 3.421.015 6.205 1.93 6.182 7.176l-.001.001zm2.214.899c.021-4.788 3.188-8.024 7.869-8.004 4.682.02 7.82 3.285 7.799 8.072-.021 4.819-3.188 8.028-7.87 8.007-4.681-.02-7.82-3.259-7.798-8.075zm12.367.054c.013-3.037-1.778-5.223-4.51-5.235-2.733-.012-4.513 2.158-4.526 5.195-.014 3.037 1.749 5.223 4.48 5.235 2.731.012 4.543-2.158 4.556-5.195zm8.3 2.706c.113 1.628 1.488 2.798 3.83 2.808 2.011.01 3.335-.783 3.34-2.04.008-1.688-1.402-1.817-3.773-2.136-3.509-.443-6.269-1.222-6.254-4.476.013-2.974 2.632-4.895 6.325-4.85 3.783.017 6.446 1.808 6.642 5.03l-3.181-.014c-.174-1.44-1.49-2.46-3.412-2.47-1.922-.008-3.186.785-3.192 2.042-.006 1.474 1.463 1.663 3.685 1.919 3.509.446 6.358 1.194 6.343 4.692-.013 3.008-2.813 4.898-6.536 4.882-4.113-.018-6.925-1.996-7-5.403l3.183.016zm12.913-16.236l3.243.014-.095 21.479-3.243-.015.095-21.478zm5.762 13.649c.021-4.788 3.188-8.024 7.87-8.004 4.681.021 7.82 3.285 7.799 8.073-.022 4.818-3.188 8.027-7.87 8.006-4.682-.02-7.82-3.259-7.799-8.075zm12.367.054c.014-3.037-1.777-5.223-4.51-5.235-2.732-.012-4.512 2.158-4.526 5.195-.013 3.038 1.749 5.224 4.48 5.236 2.731.012 4.543-2.159 4.556-5.196zm3.693-7.839l3.482.015 4.178 12.17 4.226-12.133 3.421.015-5.742 15.686-3.962-.017-5.603-15.736zm29.148 5.654l-.045 10.187-2.821-.013-.262-2.239c-1.055 1.407-2.531 2.412-4.962 2.402-3.363-.015-5.606-1.715-5.593-4.63.014-3.221 2.304-5.02 6.626-5l3.843.016.004-.952c.007-1.75-1.218-2.828-3.351-2.837-1.92-.009-3.216.906-3.461 2.285l-3.182-.014c.345-3.066 2.932-4.957 6.805-4.94 4.083.018 6.414 2.024 6.397 5.736l.002-.001zm-3.228 3.727l.003-.55-4.023-.018c-2.012-.01-3.126.753-3.133 2.35-.006 1.317 1.072 2.242 2.841 2.25 2.702.012 4.272-1.606 4.312-4.032zm6.187-15.007l3.241.014-.059 13.377 6.998-7.579 3.813.017-5.822 6.326 6.114 9.388-3.843-.017-4.502-6.954-2.776 2.933-.017 3.989-3.241-.015.094-21.48zM225.56 41.16c.029-6.537 4.011-10.906 10.253-10.879 4.863.022 8.392 2.984 9.002 7.527l-3.571-.016c-.618-2.733-2.623-4.398-5.534-4.411-3.993-.018-6.588 3.194-6.609 7.796-.02 4.602 2.488 7.837 6.51 7.855 3.242.014 5.861-1.847 6.057-5.312l.002-.523-5.823-.026.013-2.975 9.126.04-.052 11.753-2.672-.012-.288-2.887c-1.027 1.531-3.196 3.056-6.527 3.041-5.884-.026-9.917-4.43-9.889-10.968l.002-.003zm31.415-4.832l-.014 3.1-1.441-.006c-2.881-.013-3.823 2.284-3.833 4.709l-.035 7.886-3.243-.014.07-15.711 2.881.013.349 2.363c.786-1.315 2.021-2.353 4.544-2.342l.72.003.002-.001zm.652 7.858c.021-4.787 3.188-8.025 7.87-8.005 4.682.02 7.82 3.287 7.799 8.074-.021 4.818-3.188 8.026-7.87 8.005-4.682-.02-7.82-3.257-7.799-8.074zm12.368.055c.013-3.038-1.778-5.224-4.51-5.236-2.733-.012-4.513 2.159-4.527 5.196-.013 3.037 1.75 5.223 4.481 5.235 2.731.012 4.542-2.158 4.556-5.195zm16.449-7.783l3.242.014-.069 15.71-2.851-.012-.351-1.996c-.966 1.19-2.381 2.168-4.753 2.157-3.271-.014-6.056-1.806-6.032-7.176l.038-8.745 3.241.014-.036 8.377c-.014 3.07 1.18 4.64 3.55 4.65 2.463.01 3.972-1.885 3.986-5.137l.035-7.856zm21.844 7.951c-.021 4.849-3.098 8.026-7.299 8.008-2.372-.01-4.019-1.001-4.973-2.417l-.037 8.346-3.242-.014.096-21.848 2.821.012.38 2.335c1.026-1.376 2.622-2.505 5.024-2.495 4.202.019 7.251 3.04 7.229 8.072l.001.001zm-3.301-.014c.014-3.1-1.778-5.224-4.48-5.236-2.702-.011-4.481 2.098-4.494 5.135-.014 3.129 1.747 5.317 4.448 5.329 2.701.011 4.513-2.16 4.526-5.228z" fill="#fff"/><path d="M201.348 36.083c-.06 13.59-5.513 25.866-14.274 34.723l14.913.066c6.775-9.833 10.788-21.801 10.845-34.739.057-12.937-3.85-24.94-10.538-34.832l-14.914-.066c8.683 8.934 14.028 21.259 13.968 34.848z" fill="#F22037"/><path d="M51.36 47.396c-2.697 7.094-9.821 11.74-18.037 11.705-12.39-.055-21.792-10.43-21.732-23.948.06-13.439 9.551-23.636 21.941-23.582 7.782.035 14.485 4.145 17.447 10.318l12.653.056C60.39 9.436 47.79.622 33.582.559 14.673.476.245 15.395.158 35.103.07 54.81 14.367 70.046 33.277 70.13c14.87.065 27.102-9.097 30.551-22.679l-12.468-.055zm28.691-27.602c.022-5.025 4.475-8.283 11.195-8.254 7.181.032 11.785 4.494 11.958 10.577l11.342.05C114.597 10.777 106.888.88 91.662.813 78.717.756 69.234 8.734 69.185 19.84c-.109 24.828 36.412 15.238 36.345 30.409-.025 5.703-5.328 9.539-12.802 9.506-7.938-.035-13.587-4.992-13.555-12.238l-10.959-.048c-.058 13.233 10.288 22.858 24.467 22.92 13.607.06 23.755-8.402 23.806-20.092.116-26.185-36.5-16.389-36.437-30.504l.001.001zm104.88 12.152l-31.633-.139-.048 10.917 20.862.092c-1.833 9.95-9.815 16.861-20.201 16.816-13.238-.059-22.64-10.434-22.58-23.952.059-13.439 9.551-23.636 22.034-23.581 7.536.033 14.977 4.162 17.77 10.319l12.669.056c-2.924-11.498-15.966-21.324-30.39-21.387-18.91-.083-33.432 14.835-33.519 34.545-.087 19.71 14.21 34.943 33.212 35.027 18.232.08 32.191-13.296 32.274-32.328.009-2.032-.163-4.742-.449-6.383l-.001-.002z" fill="#fff"/></g><defs><clipPath id="clip0_1542_120218"><rect fill="#fff" height="72" transform="rotate(.252 .159 72.084)" width="412.553"/></clipPath></defs></svg>