<svg width="134" height="26" viewBox="0 0 134 26" fill="none" xmlns="http://www.w3.org/2000/svg">
<g id="logo 1" clip-path="url(#clip0_495_742)">
<g id="Group">
<path id="Vector" d="M126.49 21.8235C126.49 19.8382 128.11 18.2941 130.024 18.2941C132.012 18.2941 133.558 19.9118 133.558 21.8235C133.558 23.7353 131.938 25.3529 130.024 25.3529C128.11 25.3529 126.49 23.8088 126.49 21.8235Z" fill="#86BC25"/>
<path id="Vector_2" d="M20.3209 12.3382C20.3209 16.4559 19.2901 19.5441 17.0813 21.75C14.8725 23.9559 11.7802 25.0588 7.8044 25.0588H0V0.573532H8.24615C12.1484 0.573532 15.0934 1.52941 17.1549 3.58824C19.2901 5.57353 20.3209 8.51471 20.3209 12.3382ZM13.5473 12.5588C13.5473 10.2794 13.1055 8.66177 12.222 7.55883C11.4121 6.52941 10.0132 5.94118 8.24615 5.94118H6.47912V19.6176H7.95165C9.93956 19.6176 11.3385 19.0294 12.2956 17.8529C13.1055 16.6765 13.5473 14.9118 13.5473 12.5588Z" fill="black"/>
<path id="Vector_3" d="M47.8571 0.5H41.7461V25.0588H47.8571V0.5Z" fill="black"/>
<path id="Vector_4" d="M68.0308 15.8677C68.0308 18.8088 67.2945 21.1618 65.6748 22.8529C64.055 24.5441 61.8462 25.3529 59.0484 25.3529C56.3242 25.3529 54.189 24.5441 52.5693 22.7794C50.9495 21.0147 50.1396 18.7353 50.1396 15.8677C50.1396 12.9265 50.8759 10.5735 52.4956 8.95589C54.1154 7.26471 56.3242 6.45589 59.122 6.45589C60.889 6.45589 62.4352 6.82353 63.7605 7.55883C65.1594 8.29412 66.1165 9.39706 66.8528 10.7941C67.7363 12.3382 68.0308 13.9559 68.0308 15.8677ZM56.4715 15.8677C56.4715 17.4853 56.6923 18.5882 57.0605 19.3971C57.4286 20.2059 58.0912 20.5735 59.122 20.5735C60.1528 20.5735 60.7418 20.2059 61.1835 19.3971C61.5517 18.5882 61.7726 17.3382 61.7726 15.8677C61.7726 14.25 61.5517 13.1471 61.1835 12.3382C60.8154 11.6029 60.1528 11.1618 59.122 11.1618C58.2385 11.1618 57.5022 11.5294 57.0605 12.3382C56.6923 13.1471 56.4715 14.25 56.4715 15.8677Z" fill="black"/>
<path id="Vector_5" d="M76.645 6.75H70.5341V24.9853H76.645V6.75Z" fill="black"/>
<path id="Vector_6" d="M76.645 0.5H70.5341V4.61765H76.645V0.5Z" fill="black"/>
<path id="Vector_7" d="M89.0879 20.3529C89.8978 20.3529 90.9286 20.1323 92.033 19.7647V24.3971C91.2231 24.7647 90.4132 24.9853 89.6769 25.1323C88.9407 25.2794 88.0571 25.3529 87.0264 25.3529C84.9648 25.3529 83.4923 24.8382 82.5352 23.7353C81.6516 22.7059 81.1363 21.0882 81.1363 18.9559V11.4559H79.0011V6.74999H81.1363V2.19117L87.3209 1.16176V6.89705H91.2967V11.5294H87.3209V18.5882C87.4681 19.8382 87.9835 20.3529 89.0879 20.3529Z" fill="black"/>
<path id="Vector_8" d="M103.371 20.3529C104.181 20.3529 105.212 20.1323 106.316 19.7647V24.3971C105.507 24.7647 104.697 24.9853 103.96 25.1323C103.224 25.2794 102.341 25.3529 101.31 25.3529C99.2484 25.3529 97.7758 24.8382 96.8187 23.7353C95.9352 22.7059 95.4198 21.0882 95.4198 18.9559V11.4559H93.2846V6.74999H95.4198V2.11764L101.604 1.16176V6.89705H105.58V11.5294H101.604V18.5882C101.678 19.8382 102.267 20.3529 103.371 20.3529Z" fill="black"/>
<path id="Vector_9" d="M122.809 8.58824C121.336 7.11765 119.275 6.45589 116.624 6.45589C113.826 6.45589 111.618 7.26471 110.071 8.95589C108.525 10.6471 107.789 13 107.789 16.0882C107.789 19.0294 108.599 21.3824 110.219 23C111.912 24.6177 114.195 25.4265 117.14 25.4265C118.612 25.4265 119.79 25.3529 120.821 25.1324C121.778 24.9118 122.882 24.6176 123.766 24.1029L122.882 19.9853C122.22 20.2794 121.484 20.5 120.894 20.6471C120.011 20.8677 118.98 20.9412 117.949 20.9412C116.771 20.9412 115.814 20.6471 115.152 20.1324C114.489 19.5441 114.121 18.7353 114.121 17.7059H125.091V14.8382C125.018 12.1177 124.208 10.0588 122.809 8.58824ZM114.121 13.6618C114.195 12.7059 114.489 11.8971 114.931 11.4559C115.373 11.0147 115.962 10.7941 116.771 10.7941C117.508 10.7941 118.244 11.0147 118.686 11.5294C119.127 12.0441 119.348 12.7059 119.422 13.6618H114.121Z" fill="black"/>
<path id="Vector_10" d="M37.1813 8.58824C35.6351 7.11765 33.6472 6.45589 30.9967 6.45589C28.1989 6.45589 25.9901 7.26471 24.4439 8.95589C22.8978 10.6471 22.1615 13 22.1615 16.0882C22.1615 19.0294 22.9714 21.3824 24.5912 23C26.2846 24.6177 28.567 25.4265 31.512 25.4265C32.9846 25.4265 34.1626 25.3529 35.1934 25.1324C36.1505 24.9118 37.2549 24.6176 38.1384 24.1029L37.2549 19.9118C36.5923 20.2059 35.856 20.4265 35.267 20.5735C34.3835 20.7941 33.3527 20.8677 32.3219 20.8677C31.1439 20.8677 30.1868 20.5735 29.5241 20.0588C28.8615 19.4706 28.4934 18.6618 28.4934 17.6324H39.4637V14.8382C39.3901 12.1177 38.5802 10.0588 37.1813 8.58824ZM28.4197 13.6618C28.4934 12.7059 28.7879 11.8971 29.2296 11.4559C29.6714 11.0147 30.2604 10.7941 31.0703 10.7941C31.8802 10.7941 32.5428 11.0147 32.9846 11.5294C33.4263 12.0441 33.6472 12.7059 33.7208 13.6618H28.4197Z" fill="black"/>
</g>
</g>
<defs>
<clipPath id="clip0_495_742">
<rect width="134" height="25" fill="white" transform="translate(0 0.5)"/>
</clipPath>
</defs>
</svg>
