<svg xmlns="http://www.w3.org/2000/svg" width="648" height="252" viewBox="0 0 648 252">
  <path fill="#fff" fill-rule="evenodd" d="M80.586,127.144H47.317v13.614l13.813,1.062v16.4a20.776,20.776,0,0,1-5.678,2.325,36.713,36.713,0,0,1-9.463,1q-13.016,0-19.922-8.8T19.16,129.2V125.75q0-15.141,7.039-24.5t19.723-9.363a33.5,33.5,0,0,1,9.994,1.361,19.886,19.886,0,0,1,7.006,3.619l2.723,12.949H79.988V90.355A44.766,44.766,0,0,0,64.35,80.56,57.307,57.307,0,0,0,43.6,76.941q-19.523,0-31.643,13.613T-0.164,125.883v3.32q0,20.985,12.285,34.1T44,176.418q13.811,0,22.844-3.752t13.746-8.4V127.144Zm11.621,47.879h37.984V163.4l-9.3-1.992V126.48a10.736,10.736,0,0,1,4.25-4.715,13.585,13.585,0,0,1,7.039-1.66l7.968,0.2,2.059-17.665a19.941,19.941,0,0,0-2.822-.564,23.717,23.717,0,0,0-3.221-.232,14.539,14.539,0,0,0-9.23,3.121,22.6,22.6,0,0,0-6.508,8.7l-0.864-10.492H91.211v11.687l10.293,1.992V161.41l-9.3,1.992v11.621Zm122.586,0V163.4l-5.91-.8a22.118,22.118,0,0,1-.233-2.789q-0.033-1.46-.033-3.121V127.012q0-12.085-8.334-18.627T178.6,101.844a44.182,44.182,0,0,0-14.975,2.457,54.413,54.413,0,0,0-12.186,6.043l-0.066,15.937h14.609l1.262-7.7a15.475,15.475,0,0,1,4.184-1.826,20.913,20.913,0,0,1,5.91-.764q5.843,0,8.832,2.856t2.988,8.035v7.039h-9.894q-15.673,0-23.774,5.512t-8.1,15.6q0,9.9,6.209,15.639t16.767,5.744a25.144,25.144,0,0,0,11.323-2.457,26.687,26.687,0,0,0,8.4-6.442,28.9,28.9,0,0,0,.93,3.819,35.047,35.047,0,0,0,1.394,3.685h22.379Zm-45.721-15.008a7.177,7.177,0,0,1-2.357-5.71,9.044,9.044,0,0,1,3.187-6.94q3.188-2.889,9.364-2.889h9.894v10.957a15.372,15.372,0,0,1-5.578,4.748,16.8,16.8,0,0,1-7.969,1.893A9.611,9.611,0,0,1,169.072,160.015Zm51.233,15.008h36.523V163.4l-7.836-1.992V122.894a14.2,14.2,0,0,1,5.114-4.416,14.973,14.973,0,0,1,6.906-1.56q5.91,0,8.832,3.021t2.922,10.26V161.41l-8.3,1.992v11.621H301.52V163.4l-9.3-1.992V130.133q0-14.609-6.11-21.45t-17-6.839a22.929,22.929,0,0,0-11.754,3.054,26.3,26.3,0,0,0-8.832,8.567l-0.863-10.293H219.309v11.687l10.293,1.992V161.41l-9.3,1.992v11.621Zm134.937,0h26.1V163.4l-9.3-1.992V71.43h-29.75V83.117l10.359,1.992v25.766a23.717,23.717,0,0,0-7.57-6.674,19.9,19.9,0,0,0-9.695-2.357q-13.349,0-20.719,10.425T307.3,139.7v1.4q0,15.938,7.338,25.632t20.619,9.7a21.131,21.131,0,0,0,10.525-2.59,23.81,23.81,0,0,0,8-7.57ZM326.688,139.7q0-10.159,3.253-16.469a10.876,10.876,0,0,1,10.36-6.308,13.641,13.641,0,0,1,7.271,1.892,14.778,14.778,0,0,1,5.08,5.346v30.481a13.766,13.766,0,0,1-5.113,4.98,14.985,14.985,0,0,1-7.371,1.727q-7.172,0-10.326-5.413t-3.154-14.841v-1.4Z"/>
  <path fill="#fff" fill-rule="evenodd" d="M470.012,91.992v69.395l-10.36,1.992V175H499.7V163.379l-10.359-1.992V91.992L499.7,90V78.313H459.652V90ZM506,78.313v25.766h14.809l0.8-10.824H539.34v68.133l-10.36,1.992V175h40.11V163.379l-10.36-1.992V93.254h17.8l0.8,10.824H592.2V78.313H506Z"/>
  <path fill="#f39200" fill-rule="evenodd" d="M522,0A126,126,0,1,1,396,126,126,126,0,0,1,522,0Zm0,30a96,96,0,1,1-96,96A96,96,0,0,1,522,30Z"/>
</svg>
