<svg width="102" height="76" viewBox="0 0 102 76" fill="none" xmlns="http://www.w3.org/2000/svg">
<path d="M101.723 71.9238H0.319336V75.72H101.723V71.9238Z" fill="#E30613"/>
<path d="M101.723 0.283203H0.319336V58.45H101.723V0.283203Z" fill="#E30613"/>
<path d="M101.737 59.5811H0.32959V70.7642H101.737V59.5811Z" fill="black"/>
<path fill-rule="evenodd" clip-rule="evenodd" d="M69.2807 25.7325V33.5481H75.3978C80.2929 33.5481 82.693 32.021 82.5179 29.2261C82.3428 26.7049 79.9427 25.7253 75.0257 25.7253L69.2807 25.7325ZM9.68945 19.3071H21.8506V33.5373H37.0284V19.3071H49.175V51.6392H37.0284V39.9734H21.8506V51.6392H9.68945V19.3071ZM56.8423 19.3071H77.9985C87.7669 19.3071 95.332 22.4658 95.2846 29.6151C95.2591 39.3395 85.6184 39.9734 77.9985 39.9734H69.2807V51.6392H56.8423V19.3071Z" fill="white"/>
<path fill-rule="evenodd" clip-rule="evenodd" d="M72.9368 61.6445V69.0315H74.4323V61.6445H72.9368ZM58.2113 62.3361L67.2684 69.0027H69.2782V61.6157H67.8192V68.3112L58.9336 61.6301H56.7961V69.0171H58.2041V62.3361H58.2113ZM46.8125 68.3941C45.5359 68.3941 44.4452 68.3652 43.5807 68.3652C41.8736 68.3652 41.5745 67.5873 41.5745 66.3303V64.1189C41.5745 62.8187 41.7897 62.3181 43.7266 62.3181H49.84C52.0286 62.3181 52.1381 63.0384 52.1381 64.2305V66.4384C52.1381 67.5837 51.8061 68.3472 50.099 68.3472C49.2382 68.3472 48.0892 68.376 46.8162 68.376L46.8125 68.3941ZM46.8709 69.1324L50.4164 69.1036C51.5107 69.1036 52.7107 69.0315 53.1266 68.2104C53.5716 67.2919 53.5862 63.6831 53.2287 62.6206C52.9551 61.7706 51.6347 61.5581 50.5878 61.5581H46.7687H43.1503C42.1764 61.5581 40.783 61.7706 40.5094 62.6206C40.0936 63.8812 40.1228 67.2487 40.6116 68.2104C41.1003 69.172 42.2347 69.1036 43.3254 69.1036L46.8709 69.1324ZM90.8394 66.4852C90.8643 67.0592 90.7387 67.6299 90.4746 68.1419C89.9165 68.9487 88.9827 69.0315 87.9504 69.0315L84.591 69.0604L81.2607 69.0315C80.2685 69.0315 79.1341 69.0315 78.7074 68.1131C78.1785 66.993 78.1493 63.8956 78.6526 62.6782C78.9809 61.8714 80.3743 61.5581 81.206 61.5581H84.7223H88.2131C89.705 61.5581 90.0916 61.8426 90.6242 62.5197C90.8545 62.9348 90.9355 63.4148 90.854 63.8812H89.4168C89.4168 62.9591 89.2891 62.3793 87.7535 62.3649L84.7807 62.3361L81.8626 62.3649C80.3415 62.3649 79.7798 63.114 79.7798 64.0937V66.2727C79.7798 67.2631 79.9548 68.1816 81.4321 68.2824C82.2492 68.34 83.3143 68.3112 84.5034 68.3112C85.6926 68.3112 86.9145 68.3112 87.7206 68.2824C88.9389 68.2248 89.4715 67.8142 89.4423 66.4816L90.8394 66.4852ZM16.2782 62.4693H21.5199V61.6626H9.61768V62.4693H14.7791V69.0496H16.2709V62.4693H16.2782ZM24.562 61.6626V69.0496H26.0539V66.0494H33.1886C34.7243 66.0494 35.1547 66.4095 35.1547 67.364V69.0496H36.7049V66.9966C36.7049 66.0638 36.0301 65.8225 34.6404 65.6964C36.5189 65.5127 36.88 64.8752 36.8946 63.8416C36.8946 62.1272 35.5596 61.6626 33.3054 61.6626H24.562ZM26.0539 65.2426V62.4693H32.9844C34.5346 62.4693 35.2678 62.6098 35.2678 63.8416C35.2678 64.8176 34.7352 65.2426 32.9844 65.2426H26.0539Z" fill="white"/>
<path d="M91.615 46.1142C91.1695 46.1046 90.7266 46.1825 90.3118 46.3432C89.897 46.504 89.5187 46.7444 89.1987 47.0506C88.8787 47.3568 88.6235 47.7227 88.4479 48.127C88.2722 48.5314 88.1795 48.9661 88.1753 49.406C88.1762 49.8508 88.266 50.291 88.4395 50.7014C88.613 51.1118 88.8667 51.4844 89.1862 51.7979C89.5057 52.1114 89.8847 52.3595 90.3015 52.5282C90.7182 52.6968 91.1646 52.7827 91.615 52.7808C92.0638 52.7832 92.5087 52.6974 92.9236 52.5285C93.3386 52.3596 93.7154 52.1109 94.0321 51.7968C94.3488 51.4828 94.5991 51.1097 94.7684 50.6992C94.9377 50.2888 95.0226 49.8492 95.0183 49.406C95.0194 48.9677 94.9316 48.5335 94.76 48.1291C94.5885 47.7247 94.3368 47.3584 94.0196 47.0516C93.7024 46.7448 93.3263 46.5038 92.9133 46.3428C92.5003 46.1818 92.0589 46.1041 91.615 46.1142ZM91.615 52.2117C91.2464 52.2099 90.882 52.1355 90.5429 51.9928C90.2039 51.8501 89.8971 51.6419 89.6406 51.3806C89.3841 51.1193 89.183 50.81 89.0491 50.471C88.9153 50.1319 88.8513 49.7698 88.8611 49.406C88.8797 48.8743 89.0562 48.3598 89.3688 47.9264C89.6814 47.4931 90.1162 47.1601 90.619 46.9689C91.1218 46.7777 91.6705 46.7367 92.1967 46.8511C92.7229 46.9655 93.2034 47.2302 93.5784 47.6122C93.9534 47.9943 94.2063 48.4768 94.3057 48.9997C94.405 49.5226 94.3464 50.0628 94.1371 50.5531C93.9278 51.0433 93.5771 51.462 93.1287 51.7569C92.6802 52.0518 92.1538 52.21 91.615 52.2117Z" fill="white"/>
<path d="M93.1756 48.5922C93.1756 47.8467 92.7197 47.5117 91.8078 47.5117H90.3159V51.3403H90.8959V49.6763H91.5962L92.6139 51.3403H93.2814L92.1871 49.6583C92.3242 49.6562 92.4593 49.6265 92.5843 49.571C92.7093 49.5155 92.8215 49.4354 92.9141 49.3356C93.0066 49.2358 93.0776 49.1184 93.1225 48.9906C93.1675 48.8627 93.1856 48.7272 93.1756 48.5922ZM90.8959 49.1973V48.0015H91.702C92.1215 48.0015 92.5628 48.088 92.5628 48.5562C92.5628 49.1469 92.1069 49.1973 91.6145 49.1973H90.8959Z" fill="white"/>
</svg>
