<?xml version="1.0" encoding="utf-8"?>
<!-- Generator: Adobe Illustrator 19.0.0, SVG Export Plug-In . SVG Version: 6.00 Build 0)  -->
<svg version="1.1" id="Layer_1" xmlns="http://www.w3.org/2000/svg" xmlns:xlink="http://www.w3.org/1999/xlink" x="0px" y="0px"
	 viewBox="95 370.1 394.1 110.9" style="enable-background:new 95 370.1 394.1 110.9;" xml:space="preserve">
<style type="text/css">
	.st0{fill:#132968;}
	.st1{fill:#F96B6B;}
</style>
<title>OMIO_blue</title>
<g>
	<path class="st0" d="M386.4,395.2h-23.9c-0.7,0-1.3,0.6-1.3,1.3v81c0,0.7,0.6,1.3,1.3,1.3h23.9c0.7,0,1.3-0.6,1.3-1.3v-81
		C387.7,395.8,387.1,395.2,386.4,395.2"/>
	<path class="st0" d="M442.7,457c-12.7,0-19.4-9.4-19.4-20c0-10.8,6.7-20,19.4-20c12.7,0,19.5,9.2,19.5,20
		C462.3,447.6,455.4,457,442.7,457 M442.7,393c-26.8,0-46.2,18.5-46.2,44c0,25.5,19.4,44,46.2,44c27.3,0,46.3-18.1,46.3-44
		S470,393,442.7,393"/>
	<path class="st0" d="M350.4,429.2c0-21-16-36.2-38-36.2c-10.2,0-18.9,4.7-23.3,9.5c-0.7,0.7-1.8,0.8-2.5,0.1c0,0-0.1-0.1-0.1-0.1
		c-4.4-4.8-13.1-9.5-23.5-9.5c-21.9,0-37.9,15.2-37.9,36.2v48.4c0,0.7,0.6,1.3,1.3,1.3h23.9c0.7,0,1.3-0.6,1.3-1.3v-47.3
		c0-6.2,3.9-12.4,11.3-12.4c7.6,0,11.5,6.3,11.5,12.4v47.3c0,0.7,0.6,1.3,1.3,1.3h24c0.7,0,1.3-0.6,1.3-1.3v-47.3
		c0-6.2,3.9-12.4,11.3-12.4c7.6,0,11.5,6.3,11.5,12.4v47.3c0,0.7,0.6,1.3,1.3,1.3H349c0.7,0,1.3-0.6,1.3-1.3L350.4,429.2z"/>
	<path class="st0" d="M171.4,457c-12.7,0-19.5-9.4-19.5-20c0-10.8,6.9-20,19.5-20s19.4,9.2,19.4,20C190.8,447.6,184.1,457,171.4,457
		 M171.4,393c-27.3,0-46.3,18.1-46.3,44s19,44,46.3,44c26.8,0,46.2-18.5,46.2-44C217.6,411.5,198.2,393,171.4,393"/>
	<path class="st1" d="M114.7,370.1c10-0.1,18.3,7.6,19.1,17.5c0.9,10.6-7,19.9-17.6,20.8c-0.6,0.1-1.2,0.1-1.7,0.1
		c-10,0.1-18.4-7.5-19.4-17.5c-0.9-10.7,6.9-19.9,17.8-20.8C113.5,370.1,114.1,370.1,114.7,370.1"/>
</g>
</svg>
