<?xml version="1.0" encoding="UTF-8" standalone="no"?>
<!DOCTYPE svg PUBLIC "-//W3C//DTD SVG 1.1//EN" "http://www.w3.org/Graphics/SVG/1.1/DTD/svg11.dtd">
<svg width="100%" height="100%" viewBox="0 0 163 44" version="1.1" xmlns="http://www.w3.org/2000/svg" xmlns:xlink="http://www.w3.org/1999/xlink" xml:space="preserve" xmlns:serif="http://www.serif.com/" style="fill-rule:evenodd;clip-rule:evenodd;stroke-linejoin:round;stroke-miterlimit:2;">
    <g transform="matrix(1,0,0,1,-61.6139,-118.452)">
        <g transform="matrix(41.8755,0,0,-41.8755,61.6143,140.233)">
            <path d="M0.434,0.474L0.149,0.2C0.116,0.169 0.098,0.125 0.098,0.08L0.098,-0.202C0.091,-0.213 0.082,-0.227 0.075,-0.238C0.06,-0.261 0.044,-0.285 0.033,-0.305C0.025,-0.318 0.019,-0.329 0.015,-0.338C-0.021,-0.414 0.019,-0.467 0.032,-0.481C0.055,-0.506 0.088,-0.52 0.123,-0.52C0.128,-0.52 0.133,-0.52 0.138,-0.519C0.146,-0.518 0.155,-0.517 0.166,-0.514C0.177,-0.511 0.19,-0.507 0.207,-0.5C0.235,-0.491 0.269,-0.477 0.299,-0.466C0.315,-0.459 0.336,-0.451 0.349,-0.446L0.835,-0.446C0.926,-0.446 1,-0.372 1,-0.281L1,0.08C1,0.125 0.981,0.169 0.949,0.2L0.663,0.474C0.631,0.505 0.59,0.52 0.549,0.52C0.508,0.52 0.466,0.505 0.434,0.474ZM0.337,0.049L0.549,0.252L0.761,0.049L0.761,-0.207L0.337,-0.207L0.337,0.049Z" style="fill:url(#_Linear1);fill-rule:nonzero;"/>
        </g>
        <g transform="matrix(1,0,0,1,119.605,126.241)">
            <path d="M0,28.216L0,0.685L7.239,0.685L7.239,4.446C9.177,1.996 12.597,0 16.017,0L16.017,7.069C15.504,6.955 14.82,6.898 14.022,6.898C11.628,6.898 8.436,8.266 7.239,10.032L7.239,28.216L0,28.216Z" style="fill:rgb(24,43,74);fill-rule:nonzero;"/>
        </g>
        <g transform="matrix(1,0,0,1,152.606,149.384)">
            <path d="M0,-17.385C-4.503,-17.385 -6.441,-14.022 -6.783,-11.286L6.783,-11.286C6.612,-13.908 4.788,-17.385 0,-17.385M-14.25,-8.721C-14.25,-16.701 -8.379,-23.142 0,-23.142C8.208,-23.142 13.794,-16.986 13.794,-7.98L13.794,-6.384L-6.669,-6.384C-6.213,-2.907 -3.42,0 1.254,0C3.591,0 6.84,-1.026 8.607,-2.736L11.799,1.938C9.063,4.447 4.731,5.757 0.456,5.757C-7.923,5.757 -14.25,0.115 -14.25,-8.721" style="fill:rgb(24,43,74);fill-rule:nonzero;"/>
        </g>
        <g transform="matrix(1,0,0,1,188.173,133.537)">
            <path d="M0,14.308L0,10.888C-1.197,9.292 -3.477,8.494 -5.814,8.494C-8.664,8.494 -11.001,9.976 -11.001,12.655C-11.001,15.22 -8.664,16.703 -5.814,16.703C-3.477,16.703 -1.197,15.904 0,14.308M0,20.92L0,18.07C-1.881,20.293 -5.13,21.604 -8.721,21.604C-13.11,21.604 -18.297,18.64 -18.297,12.484C-18.297,6.043 -13.11,3.592 -8.721,3.592C-5.073,3.592 -1.824,4.789 0,6.955L0,3.25C0,0.457 -2.394,-1.367 -6.042,-1.367C-9.006,-1.367 -11.742,-0.284 -14.079,1.882L-16.815,-2.963C-13.452,-5.927 -9.12,-7.296 -4.788,-7.296C1.482,-7.296 7.239,-4.787 7.239,3.136L7.239,20.92L0,20.92Z" style="fill:rgb(24,43,74);fill-rule:nonzero;"/>
        </g>
        <g transform="matrix(1,0,0,1,200.199,130.517)">
            <path d="M0,20.349L3.135,15.277C5.13,17.158 9.234,19.038 12.654,19.038C15.789,19.038 17.271,17.785 17.271,16.075C17.271,11.515 0.912,15.219 0.912,4.39C0.912,-0.228 4.959,-4.275 12.198,-4.275C16.872,-4.275 20.577,-2.679 23.313,-0.513L20.406,4.446C18.753,2.68 15.618,1.254 12.255,1.254C9.633,1.254 7.923,2.452 7.923,3.991C7.923,8.094 24.225,4.674 24.225,15.789C24.225,20.805 19.95,24.624 12.312,24.624C7.524,24.624 2.907,23.029 0,20.349" style="fill:rgb(24,43,74);fill-rule:nonzero;"/>
        </g>
    </g>
    <defs>
        <linearGradient id="_Linear1" x1="0" y1="0" x2="1" y2="0" gradientUnits="userSpaceOnUse" gradientTransform="matrix(1,0,0,-1,0,-1.71461e-06)"><stop offset="0" style="stop-color:rgb(24,117,240);stop-opacity:1"/><stop offset="1" style="stop-color:rgb(50,148,254);stop-opacity:1"/></linearGradient>
    </defs>
</svg>